<mxfile host="app.diagrams.net" modified="2024-05-12T17:40:47.727Z" agent="Mozilla/5.0 (Windows NT 10.0; Win64; x64) AppleWebKit/537.36 (KHTML, like Gecko) Chrome/124.0.0.0 Safari/537.36" etag="E_mTcA1PyKCyqueTNuWf" version="24.4.0" type="device">
  <diagram id="C5RBs43oDa-KdzZeNtuy" name="Page-1">
    <mxGraphModel dx="1720" dy="483" grid="1" gridSize="10" guides="1" tooltips="1" connect="1" arrows="1" fold="1" page="1" pageScale="1" pageWidth="827" pageHeight="1169" math="0" shadow="0">
      <root>
        <mxCell id="WIyWlLk6GJQsqaUBKTNV-0" />
        <mxCell id="WIyWlLk6GJQsqaUBKTNV-1" parent="WIyWlLk6GJQsqaUBKTNV-0" />
        <mxCell id="doYjt0I-bv-tzujPuIN1-176" style="edgeStyle=orthogonalEdgeStyle;rounded=0;orthogonalLoop=1;jettySize=auto;html=1;entryX=0.5;entryY=0;entryDx=0;entryDy=0;" parent="WIyWlLk6GJQsqaUBKTNV-1" source="doYjt0I-bv-tzujPuIN1-162" edge="1">
          <mxGeometry relative="1" as="geometry">
            <mxPoint x="-756" y="83" as="targetPoint" />
          </mxGeometry>
        </mxCell>
        <mxCell id="doYjt0I-bv-tzujPuIN1-162" value="&lt;font style=&quot;font-size: 14px;&quot;&gt;Початок&lt;/font&gt;" style="rounded=1;whiteSpace=wrap;html=1;arcSize=50;" parent="WIyWlLk6GJQsqaUBKTNV-1" vertex="1">
          <mxGeometry x="-827" width="142" height="40" as="geometry" />
        </mxCell>
        <mxCell id="5P4AQtrJ6tJbXIEikHf2-34" value="&lt;font style=&quot;font-size: 11px;&quot;&gt;Множення кожного значення на фактор зміни яскравості&lt;/font&gt;" style="rounded=0;whiteSpace=wrap;html=1;" vertex="1" parent="WIyWlLk6GJQsqaUBKTNV-1">
          <mxGeometry x="-816" y="189" width="120" height="60" as="geometry" />
        </mxCell>
        <mxCell id="5P4AQtrJ6tJbXIEikHf2-35" value="Конвертація у масив векторів" style="shape=process;whiteSpace=wrap;html=1;backgroundOutline=1;" vertex="1" parent="WIyWlLk6GJQsqaUBKTNV-1">
          <mxGeometry x="-816" y="84.5" width="120" height="60" as="geometry" />
        </mxCell>
        <mxCell id="5P4AQtrJ6tJbXIEikHf2-36" style="edgeStyle=orthogonalEdgeStyle;rounded=0;orthogonalLoop=1;jettySize=auto;html=1;entryX=0.5;entryY=0;entryDx=0;entryDy=0;" edge="1" parent="WIyWlLk6GJQsqaUBKTNV-1">
          <mxGeometry relative="1" as="geometry">
            <mxPoint x="-756.1700000000001" y="144.5" as="sourcePoint" />
            <mxPoint x="-756.1700000000001" y="187.5" as="targetPoint" />
          </mxGeometry>
        </mxCell>
        <mxCell id="5P4AQtrJ6tJbXIEikHf2-37" value="Виконання обмеження знчення [0; 255]" style="shape=process;whiteSpace=wrap;html=1;backgroundOutline=1;" vertex="1" parent="WIyWlLk6GJQsqaUBKTNV-1">
          <mxGeometry x="-816" y="292" width="120" height="60" as="geometry" />
        </mxCell>
        <mxCell id="5P4AQtrJ6tJbXIEikHf2-38" style="edgeStyle=orthogonalEdgeStyle;rounded=0;orthogonalLoop=1;jettySize=auto;html=1;entryX=0.5;entryY=0;entryDx=0;entryDy=0;" edge="1" parent="WIyWlLk6GJQsqaUBKTNV-1">
          <mxGeometry relative="1" as="geometry">
            <mxPoint x="-756.1700000000001" y="352" as="sourcePoint" />
            <mxPoint x="-756.1700000000001" y="395" as="targetPoint" />
          </mxGeometry>
        </mxCell>
        <mxCell id="5P4AQtrJ6tJbXIEikHf2-39" style="edgeStyle=orthogonalEdgeStyle;rounded=0;orthogonalLoop=1;jettySize=auto;html=1;entryX=0.5;entryY=0;entryDx=0;entryDy=0;" edge="1" parent="WIyWlLk6GJQsqaUBKTNV-1">
          <mxGeometry relative="1" as="geometry">
            <mxPoint x="-756.22" y="249" as="sourcePoint" />
            <mxPoint x="-756.22" y="292" as="targetPoint" />
          </mxGeometry>
        </mxCell>
        <mxCell id="5P4AQtrJ6tJbXIEikHf2-40" value="&lt;font style=&quot;font-size: 14px;&quot;&gt;Кінець&lt;/font&gt;" style="rounded=1;whiteSpace=wrap;html=1;arcSize=50;" vertex="1" parent="WIyWlLk6GJQsqaUBKTNV-1">
          <mxGeometry x="-827" y="396" width="142" height="40" as="geometry" />
        </mxCell>
        <mxCell id="5P4AQtrJ6tJbXIEikHf2-41" style="edgeStyle=orthogonalEdgeStyle;rounded=0;orthogonalLoop=1;jettySize=auto;html=1;entryX=0.5;entryY=0;entryDx=0;entryDy=0;" edge="1" parent="WIyWlLk6GJQsqaUBKTNV-1" source="5P4AQtrJ6tJbXIEikHf2-42">
          <mxGeometry relative="1" as="geometry">
            <mxPoint x="-560" y="83" as="targetPoint" />
          </mxGeometry>
        </mxCell>
        <mxCell id="5P4AQtrJ6tJbXIEikHf2-42" value="&lt;font style=&quot;font-size: 14px;&quot;&gt;Початок&lt;/font&gt;" style="rounded=1;whiteSpace=wrap;html=1;arcSize=50;" vertex="1" parent="WIyWlLk6GJQsqaUBKTNV-1">
          <mxGeometry x="-631" width="142" height="40" as="geometry" />
        </mxCell>
        <mxCell id="5P4AQtrJ6tJbXIEikHf2-43" value="&lt;font style=&quot;font-size: 11px;&quot;&gt;Отримання значень ширини та висоти зображення&lt;/font&gt;" style="rounded=0;whiteSpace=wrap;html=1;" vertex="1" parent="WIyWlLk6GJQsqaUBKTNV-1">
          <mxGeometry x="-620" y="83.5" width="120" height="60" as="geometry" />
        </mxCell>
        <mxCell id="5P4AQtrJ6tJbXIEikHf2-45" style="edgeStyle=orthogonalEdgeStyle;rounded=0;orthogonalLoop=1;jettySize=auto;html=1;entryX=0.5;entryY=0;entryDx=0;entryDy=0;" edge="1" parent="WIyWlLk6GJQsqaUBKTNV-1">
          <mxGeometry relative="1" as="geometry">
            <mxPoint x="-560.1700000000001" y="144.5" as="sourcePoint" />
            <mxPoint x="-560.1700000000001" y="187.5" as="targetPoint" />
          </mxGeometry>
        </mxCell>
        <mxCell id="5P4AQtrJ6tJbXIEikHf2-49" value="&lt;font style=&quot;font-size: 14px;&quot;&gt;Кінець&lt;/font&gt;" style="rounded=1;whiteSpace=wrap;html=1;arcSize=50;" vertex="1" parent="WIyWlLk6GJQsqaUBKTNV-1">
          <mxGeometry x="-631" y="719" width="142" height="40" as="geometry" />
        </mxCell>
        <mxCell id="5P4AQtrJ6tJbXIEikHf2-71" style="edgeStyle=orthogonalEdgeStyle;rounded=0;orthogonalLoop=1;jettySize=auto;html=1;entryX=0.5;entryY=0;entryDx=0;entryDy=0;" edge="1" parent="WIyWlLk6GJQsqaUBKTNV-1" source="5P4AQtrJ6tJbXIEikHf2-52" target="5P4AQtrJ6tJbXIEikHf2-49">
          <mxGeometry relative="1" as="geometry">
            <mxPoint x="-451" y="721.3529411764706" as="targetPoint" />
            <Array as="points">
              <mxPoint x="-451" y="218" />
              <mxPoint x="-451" y="689" />
              <mxPoint x="-560" y="689" />
            </Array>
          </mxGeometry>
        </mxCell>
        <mxCell id="5P4AQtrJ6tJbXIEikHf2-72" value="Ні" style="edgeLabel;html=1;align=center;verticalAlign=middle;resizable=0;points=[];" vertex="1" connectable="0" parent="5P4AQtrJ6tJbXIEikHf2-71">
          <mxGeometry x="-0.9228" relative="1" as="geometry">
            <mxPoint as="offset" />
          </mxGeometry>
        </mxCell>
        <mxCell id="5P4AQtrJ6tJbXIEikHf2-52" value="&lt;span style=&quot;font-size: 10px;&quot;&gt;X &amp;lt; Ширину?&lt;/span&gt;" style="rhombus;whiteSpace=wrap;html=1;" vertex="1" parent="WIyWlLk6GJQsqaUBKTNV-1">
          <mxGeometry x="-620" y="187.71" width="120" height="60" as="geometry" />
        </mxCell>
        <mxCell id="5P4AQtrJ6tJbXIEikHf2-57" style="edgeStyle=orthogonalEdgeStyle;rounded=0;orthogonalLoop=1;jettySize=auto;html=1;entryX=0.5;entryY=0;entryDx=0;entryDy=0;" edge="1" parent="WIyWlLk6GJQsqaUBKTNV-1">
          <mxGeometry relative="1" as="geometry">
            <mxPoint x="-560.1700000000001" y="248" as="sourcePoint" />
            <mxPoint x="-560.1700000000001" y="291" as="targetPoint" />
          </mxGeometry>
        </mxCell>
        <mxCell id="5P4AQtrJ6tJbXIEikHf2-65" value="Так" style="edgeLabel;html=1;align=center;verticalAlign=middle;resizable=0;points=[];" vertex="1" connectable="0" parent="5P4AQtrJ6tJbXIEikHf2-57">
          <mxGeometry x="-0.1532" relative="1" as="geometry">
            <mxPoint as="offset" />
          </mxGeometry>
        </mxCell>
        <mxCell id="5P4AQtrJ6tJbXIEikHf2-67" style="edgeStyle=orthogonalEdgeStyle;rounded=0;orthogonalLoop=1;jettySize=auto;html=1;exitX=0;exitY=0.5;exitDx=0;exitDy=0;" edge="1" parent="WIyWlLk6GJQsqaUBKTNV-1" source="5P4AQtrJ6tJbXIEikHf2-58">
          <mxGeometry relative="1" as="geometry">
            <mxPoint x="-561" y="165" as="targetPoint" />
            <mxPoint x="-620.0000000000001" y="328" as="sourcePoint" />
            <Array as="points">
              <mxPoint x="-640" y="322" />
              <mxPoint x="-640" y="165" />
            </Array>
          </mxGeometry>
        </mxCell>
        <mxCell id="5P4AQtrJ6tJbXIEikHf2-70" value="Ні" style="edgeLabel;html=1;align=center;verticalAlign=middle;resizable=0;points=[];" vertex="1" connectable="0" parent="5P4AQtrJ6tJbXIEikHf2-67">
          <mxGeometry x="-0.2031" y="1" relative="1" as="geometry">
            <mxPoint as="offset" />
          </mxGeometry>
        </mxCell>
        <mxCell id="5P4AQtrJ6tJbXIEikHf2-58" value="&lt;span style=&quot;font-size: 10px;&quot;&gt;Y &amp;lt; Висоту?&lt;/span&gt;" style="rhombus;whiteSpace=wrap;html=1;" vertex="1" parent="WIyWlLk6GJQsqaUBKTNV-1">
          <mxGeometry x="-620" y="292" width="120" height="60" as="geometry" />
        </mxCell>
        <mxCell id="5P4AQtrJ6tJbXIEikHf2-59" style="edgeStyle=orthogonalEdgeStyle;rounded=0;orthogonalLoop=1;jettySize=auto;html=1;entryX=0.5;entryY=0;entryDx=0;entryDy=0;" edge="1" parent="WIyWlLk6GJQsqaUBKTNV-1">
          <mxGeometry relative="1" as="geometry">
            <mxPoint x="-560.21" y="352" as="sourcePoint" />
            <mxPoint x="-560.21" y="395" as="targetPoint" />
          </mxGeometry>
        </mxCell>
        <mxCell id="5P4AQtrJ6tJbXIEikHf2-66" value="Так" style="edgeLabel;html=1;align=center;verticalAlign=middle;resizable=0;points=[];" vertex="1" connectable="0" parent="5P4AQtrJ6tJbXIEikHf2-59">
          <mxGeometry x="-0.2751" relative="1" as="geometry">
            <mxPoint as="offset" />
          </mxGeometry>
        </mxCell>
        <mxCell id="5P4AQtrJ6tJbXIEikHf2-60" value="&lt;font style=&quot;font-size: 10px;&quot;&gt;Отрмиання пікселеля за координатами X; Y&lt;/font&gt;" style="shape=process;whiteSpace=wrap;html=1;backgroundOutline=1;" vertex="1" parent="WIyWlLk6GJQsqaUBKTNV-1">
          <mxGeometry x="-620" y="395" width="120" height="60" as="geometry" />
        </mxCell>
        <mxCell id="5P4AQtrJ6tJbXIEikHf2-61" value="&lt;font style=&quot;font-size: 11px;&quot;&gt;Обчисленя значення кольору&lt;/font&gt;" style="rounded=0;whiteSpace=wrap;html=1;" vertex="1" parent="WIyWlLk6GJQsqaUBKTNV-1">
          <mxGeometry x="-620" y="499" width="120" height="60" as="geometry" />
        </mxCell>
        <mxCell id="5P4AQtrJ6tJbXIEikHf2-62" style="edgeStyle=orthogonalEdgeStyle;rounded=0;orthogonalLoop=1;jettySize=auto;html=1;entryX=0.5;entryY=0;entryDx=0;entryDy=0;" edge="1" parent="WIyWlLk6GJQsqaUBKTNV-1">
          <mxGeometry relative="1" as="geometry">
            <mxPoint x="-560.1700000000001" y="455" as="sourcePoint" />
            <mxPoint x="-560.1700000000001" y="498" as="targetPoint" />
          </mxGeometry>
        </mxCell>
        <mxCell id="5P4AQtrJ6tJbXIEikHf2-63" value="&lt;span style=&quot;font-size: 10px;&quot;&gt;Встановлення пікселеля за координатами X; Y&lt;/span&gt;" style="shape=process;whiteSpace=wrap;html=1;backgroundOutline=1;" vertex="1" parent="WIyWlLk6GJQsqaUBKTNV-1">
          <mxGeometry x="-620" y="603" width="120" height="60" as="geometry" />
        </mxCell>
        <mxCell id="5P4AQtrJ6tJbXIEikHf2-64" style="edgeStyle=orthogonalEdgeStyle;rounded=0;orthogonalLoop=1;jettySize=auto;html=1;entryX=0.5;entryY=0;entryDx=0;entryDy=0;" edge="1" parent="WIyWlLk6GJQsqaUBKTNV-1">
          <mxGeometry relative="1" as="geometry">
            <mxPoint x="-560.25" y="559" as="sourcePoint" />
            <mxPoint x="-560.25" y="602" as="targetPoint" />
          </mxGeometry>
        </mxCell>
        <mxCell id="5P4AQtrJ6tJbXIEikHf2-73" style="edgeStyle=orthogonalEdgeStyle;rounded=0;orthogonalLoop=1;jettySize=auto;html=1;entryX=0.5;entryY=0;entryDx=0;entryDy=0;" edge="1" parent="WIyWlLk6GJQsqaUBKTNV-1" source="5P4AQtrJ6tJbXIEikHf2-74">
          <mxGeometry relative="1" as="geometry">
            <mxPoint x="-319" y="84" as="targetPoint" />
          </mxGeometry>
        </mxCell>
        <mxCell id="5P4AQtrJ6tJbXIEikHf2-74" value="&lt;font style=&quot;font-size: 14px;&quot;&gt;Початок&lt;/font&gt;" style="rounded=1;whiteSpace=wrap;html=1;arcSize=50;" vertex="1" parent="WIyWlLk6GJQsqaUBKTNV-1">
          <mxGeometry x="-390" y="1" width="142" height="40" as="geometry" />
        </mxCell>
        <mxCell id="5P4AQtrJ6tJbXIEikHf2-75" value="&lt;font style=&quot;font-size: 11px;&quot;&gt;Обчислення нового кольору&lt;/font&gt;" style="rounded=0;whiteSpace=wrap;html=1;" vertex="1" parent="WIyWlLk6GJQsqaUBKTNV-1">
          <mxGeometry x="-379" y="190" width="120" height="60" as="geometry" />
        </mxCell>
        <mxCell id="5P4AQtrJ6tJbXIEikHf2-76" value="Конвертація у масив векторів" style="shape=process;whiteSpace=wrap;html=1;backgroundOutline=1;" vertex="1" parent="WIyWlLk6GJQsqaUBKTNV-1">
          <mxGeometry x="-379" y="85.5" width="120" height="60" as="geometry" />
        </mxCell>
        <mxCell id="5P4AQtrJ6tJbXIEikHf2-77" style="edgeStyle=orthogonalEdgeStyle;rounded=0;orthogonalLoop=1;jettySize=auto;html=1;entryX=0.5;entryY=0;entryDx=0;entryDy=0;" edge="1" parent="WIyWlLk6GJQsqaUBKTNV-1">
          <mxGeometry relative="1" as="geometry">
            <mxPoint x="-319.1700000000001" y="145.5" as="sourcePoint" />
            <mxPoint x="-319.1700000000001" y="188.5" as="targetPoint" />
          </mxGeometry>
        </mxCell>
        <mxCell id="5P4AQtrJ6tJbXIEikHf2-80" style="edgeStyle=orthogonalEdgeStyle;rounded=0;orthogonalLoop=1;jettySize=auto;html=1;entryX=0.5;entryY=0;entryDx=0;entryDy=0;" edge="1" parent="WIyWlLk6GJQsqaUBKTNV-1">
          <mxGeometry relative="1" as="geometry">
            <mxPoint x="-319.22" y="250" as="sourcePoint" />
            <mxPoint x="-319.22" y="293" as="targetPoint" />
          </mxGeometry>
        </mxCell>
        <mxCell id="5P4AQtrJ6tJbXIEikHf2-81" value="&lt;font style=&quot;font-size: 14px;&quot;&gt;Кінець&lt;/font&gt;" style="rounded=1;whiteSpace=wrap;html=1;arcSize=50;" vertex="1" parent="WIyWlLk6GJQsqaUBKTNV-1">
          <mxGeometry x="-390" y="294" width="142" height="40" as="geometry" />
        </mxCell>
        <mxCell id="5P4AQtrJ6tJbXIEikHf2-82" style="edgeStyle=orthogonalEdgeStyle;rounded=0;orthogonalLoop=1;jettySize=auto;html=1;entryX=0.5;entryY=0;entryDx=0;entryDy=0;" edge="1" parent="WIyWlLk6GJQsqaUBKTNV-1" source="5P4AQtrJ6tJbXIEikHf2-83">
          <mxGeometry relative="1" as="geometry">
            <mxPoint x="-139" y="84" as="targetPoint" />
          </mxGeometry>
        </mxCell>
        <mxCell id="5P4AQtrJ6tJbXIEikHf2-83" value="&lt;font style=&quot;font-size: 14px;&quot;&gt;Початок&lt;/font&gt;" style="rounded=1;whiteSpace=wrap;html=1;arcSize=50;" vertex="1" parent="WIyWlLk6GJQsqaUBKTNV-1">
          <mxGeometry x="-210" y="1" width="142" height="40" as="geometry" />
        </mxCell>
        <mxCell id="5P4AQtrJ6tJbXIEikHf2-85" value="Конвертація у масив векторів" style="shape=process;whiteSpace=wrap;html=1;backgroundOutline=1;" vertex="1" parent="WIyWlLk6GJQsqaUBKTNV-1">
          <mxGeometry x="-199" y="85.5" width="120" height="60" as="geometry" />
        </mxCell>
        <mxCell id="5P4AQtrJ6tJbXIEikHf2-86" style="edgeStyle=orthogonalEdgeStyle;rounded=0;orthogonalLoop=1;jettySize=auto;html=1;entryX=0.5;entryY=0;entryDx=0;entryDy=0;" edge="1" parent="WIyWlLk6GJQsqaUBKTNV-1">
          <mxGeometry relative="1" as="geometry">
            <mxPoint x="-139.17000000000007" y="145.5" as="sourcePoint" />
            <mxPoint x="-139.17000000000007" y="188.5" as="targetPoint" />
          </mxGeometry>
        </mxCell>
        <mxCell id="5P4AQtrJ6tJbXIEikHf2-89" value="Множення на колірну матрицю" style="shape=process;whiteSpace=wrap;html=1;backgroundOutline=1;" vertex="1" parent="WIyWlLk6GJQsqaUBKTNV-1">
          <mxGeometry x="-199" y="189" width="120" height="60" as="geometry" />
        </mxCell>
        <mxCell id="5P4AQtrJ6tJbXIEikHf2-90" value="Виконання обмеження знчення [0; 255]" style="shape=process;whiteSpace=wrap;html=1;backgroundOutline=1;" vertex="1" parent="WIyWlLk6GJQsqaUBKTNV-1">
          <mxGeometry x="-199" y="290.71" width="120" height="60" as="geometry" />
        </mxCell>
        <mxCell id="5P4AQtrJ6tJbXIEikHf2-91" style="edgeStyle=orthogonalEdgeStyle;rounded=0;orthogonalLoop=1;jettySize=auto;html=1;entryX=0.5;entryY=0;entryDx=0;entryDy=0;" edge="1" parent="WIyWlLk6GJQsqaUBKTNV-1">
          <mxGeometry relative="1" as="geometry">
            <mxPoint x="-139.17000000000007" y="350.71" as="sourcePoint" />
            <mxPoint x="-139.17000000000007" y="393.71" as="targetPoint" />
          </mxGeometry>
        </mxCell>
        <mxCell id="5P4AQtrJ6tJbXIEikHf2-92" style="edgeStyle=orthogonalEdgeStyle;rounded=0;orthogonalLoop=1;jettySize=auto;html=1;entryX=0.5;entryY=0;entryDx=0;entryDy=0;" edge="1" parent="WIyWlLk6GJQsqaUBKTNV-1">
          <mxGeometry relative="1" as="geometry">
            <mxPoint x="-139.22000000000003" y="247.71" as="sourcePoint" />
            <mxPoint x="-139.22000000000003" y="290.71" as="targetPoint" />
          </mxGeometry>
        </mxCell>
        <mxCell id="5P4AQtrJ6tJbXIEikHf2-93" value="&lt;font style=&quot;font-size: 14px;&quot;&gt;Кінець&lt;/font&gt;" style="rounded=1;whiteSpace=wrap;html=1;arcSize=50;" vertex="1" parent="WIyWlLk6GJQsqaUBKTNV-1">
          <mxGeometry x="-210" y="394.71" width="142" height="40" as="geometry" />
        </mxCell>
        <mxCell id="5P4AQtrJ6tJbXIEikHf2-94" style="edgeStyle=orthogonalEdgeStyle;rounded=0;orthogonalLoop=1;jettySize=auto;html=1;entryX=0.5;entryY=0;entryDx=0;entryDy=0;" edge="1" parent="WIyWlLk6GJQsqaUBKTNV-1" source="5P4AQtrJ6tJbXIEikHf2-95">
          <mxGeometry relative="1" as="geometry">
            <mxPoint x="41" y="83" as="targetPoint" />
          </mxGeometry>
        </mxCell>
        <mxCell id="5P4AQtrJ6tJbXIEikHf2-95" value="&lt;font style=&quot;font-size: 14px;&quot;&gt;Початок&lt;/font&gt;" style="rounded=1;whiteSpace=wrap;html=1;arcSize=50;" vertex="1" parent="WIyWlLk6GJQsqaUBKTNV-1">
          <mxGeometry x="-30" width="142" height="40" as="geometry" />
        </mxCell>
        <mxCell id="5P4AQtrJ6tJbXIEikHf2-96" value="Конвертація у масив векторів" style="shape=process;whiteSpace=wrap;html=1;backgroundOutline=1;" vertex="1" parent="WIyWlLk6GJQsqaUBKTNV-1">
          <mxGeometry x="-19" y="84.5" width="120" height="60" as="geometry" />
        </mxCell>
        <mxCell id="5P4AQtrJ6tJbXIEikHf2-97" style="edgeStyle=orthogonalEdgeStyle;rounded=0;orthogonalLoop=1;jettySize=auto;html=1;entryX=0.5;entryY=0;entryDx=0;entryDy=0;" edge="1" parent="WIyWlLk6GJQsqaUBKTNV-1">
          <mxGeometry relative="1" as="geometry">
            <mxPoint x="40.82999999999993" y="144.5" as="sourcePoint" />
            <mxPoint x="40.82999999999993" y="187.5" as="targetPoint" />
          </mxGeometry>
        </mxCell>
        <mxCell id="5P4AQtrJ6tJbXIEikHf2-98" value="Створення та накладання маски шуму" style="shape=process;whiteSpace=wrap;html=1;backgroundOutline=1;" vertex="1" parent="WIyWlLk6GJQsqaUBKTNV-1">
          <mxGeometry x="-19" y="188" width="120" height="60" as="geometry" />
        </mxCell>
        <mxCell id="5P4AQtrJ6tJbXIEikHf2-99" value="Виконання обмеження знчення [0; 255]" style="shape=process;whiteSpace=wrap;html=1;backgroundOutline=1;" vertex="1" parent="WIyWlLk6GJQsqaUBKTNV-1">
          <mxGeometry x="-19" y="289.71" width="120" height="60" as="geometry" />
        </mxCell>
        <mxCell id="5P4AQtrJ6tJbXIEikHf2-100" style="edgeStyle=orthogonalEdgeStyle;rounded=0;orthogonalLoop=1;jettySize=auto;html=1;entryX=0.5;entryY=0;entryDx=0;entryDy=0;" edge="1" parent="WIyWlLk6GJQsqaUBKTNV-1">
          <mxGeometry relative="1" as="geometry">
            <mxPoint x="40.82999999999993" y="349.71" as="sourcePoint" />
            <mxPoint x="40.82999999999993" y="392.71" as="targetPoint" />
          </mxGeometry>
        </mxCell>
        <mxCell id="5P4AQtrJ6tJbXIEikHf2-101" style="edgeStyle=orthogonalEdgeStyle;rounded=0;orthogonalLoop=1;jettySize=auto;html=1;entryX=0.5;entryY=0;entryDx=0;entryDy=0;" edge="1" parent="WIyWlLk6GJQsqaUBKTNV-1">
          <mxGeometry relative="1" as="geometry">
            <mxPoint x="40.77999999999997" y="246.71000000000004" as="sourcePoint" />
            <mxPoint x="40.77999999999997" y="289.71" as="targetPoint" />
          </mxGeometry>
        </mxCell>
        <mxCell id="5P4AQtrJ6tJbXIEikHf2-102" value="&lt;font style=&quot;font-size: 14px;&quot;&gt;Кінець&lt;/font&gt;" style="rounded=1;whiteSpace=wrap;html=1;arcSize=50;" vertex="1" parent="WIyWlLk6GJQsqaUBKTNV-1">
          <mxGeometry x="-30" y="393.71" width="142" height="40" as="geometry" />
        </mxCell>
      </root>
    </mxGraphModel>
  </diagram>
</mxfile>
